<svg width="60" height="60" viewBox="0 0 60 60" fill="none" xmlns="http://www.w3.org/2000/svg">
<g clip-path="url(#clip0_8961_44458)">
<path d="M43.5801 24.2422H4.41604C3.89628 24.2422 3.48047 23.8264 3.48047 23.3067C3.48047 22.7869 3.89628 22.3711 4.41604 22.3711H43.5801C44.0999 22.3711 44.5157 22.7869 44.5157 23.3067C44.5157 23.8264 44.0999 24.2422 43.5801 24.2422Z" fill="#219963"/>
<path d="M43.1513 21.0578H4.83188C4.40308 21.0578 4.02625 20.759 3.9223 20.3431C3.81835 19.9273 4.01326 19.4985 4.39008 19.2906L23.5563 9.10329C23.8292 8.96036 24.154 8.96036 24.4399 9.10329L43.6061 19.2906C43.9829 19.4985 44.1778 19.9273 44.0739 20.3431C43.9699 20.759 43.5931 21.0578 43.1643 21.0578H43.1513ZM8.58716 19.1867H39.409L23.9981 11.0004L8.58716 19.1867Z" fill="#219963"/>
<path d="M42.544 44.084H5.45901C4.93925 44.084 4.52344 43.6682 4.52344 43.1485C4.52344 42.6287 4.93925 42.2129 5.45901 42.2129H42.544C43.0638 42.2129 43.4796 42.6287 43.4796 43.1485C43.4796 43.6682 43.0638 44.084 42.544 44.084Z" fill="#219963"/>
<path d="M44.6745 47.6954H3.31448C2.79472 47.6954 2.37891 47.2796 2.37891 46.7598C2.37891 46.24 2.79472 45.8242 3.31448 45.8242H44.6745C45.1943 45.8242 45.6101 46.24 45.6101 46.7598C45.6101 47.2796 45.1943 47.6954 44.6745 47.6954V47.6954Z" fill="#219963"/>
<path d="M47.0644 51.295H0.935571C0.415809 51.295 0 50.8792 0 50.3594C0 49.8396 0.415809 49.4238 0.935571 49.4238H47.0644C47.5842 49.4238 48 49.8396 48 50.3594C48 50.8792 47.5842 51.295 47.0644 51.295Z" fill="#219963"/>
<path d="M8.17385 44.0837C7.65409 44.0837 7.23828 43.6679 7.23828 43.1481V23.4102C7.23828 22.8904 7.65409 22.4746 8.17385 22.4746C8.69361 22.4746 9.10942 22.8904 9.10942 23.4102V43.1481C9.10942 43.6679 8.69361 44.0837 8.17385 44.0837Z" fill="#219963"/>
<path d="M12.9434 44.0837C12.4236 44.0837 12.0078 43.6679 12.0078 43.1481V23.4102C12.0078 22.8904 12.4236 22.4746 12.9434 22.4746C13.4631 22.4746 13.879 22.8904 13.879 23.4102V43.1481C13.879 43.6679 13.4631 44.0837 12.9434 44.0837Z" fill="#219963"/>
<path d="M21.2598 44.0837C20.74 44.0837 20.3242 43.6679 20.3242 43.1481V23.4102C20.3242 22.8904 20.74 22.4746 21.2598 22.4746C21.7796 22.4746 22.1954 22.8904 22.1954 23.4102V43.1481C22.1954 43.6679 21.7796 44.0837 21.2598 44.0837Z" fill="#219963"/>
<path d="M26.0254 44.0837C25.5057 44.0837 25.0898 43.6679 25.0898 43.1481V23.4102C25.0898 22.8904 25.5057 22.4746 26.0254 22.4746C26.5452 22.4746 26.961 22.8904 26.961 23.4102V43.1481C26.961 43.6679 26.5452 44.0837 26.0254 44.0837Z" fill="#219963"/>
<path d="M34.3418 44.0837C33.8221 44.0837 33.4062 43.6679 33.4062 43.1481V23.4102C33.4062 22.8904 33.8221 22.4746 34.3418 22.4746C34.8616 22.4746 35.2774 22.8904 35.2774 23.4102V43.1481C35.2774 43.6679 34.8616 44.0837 34.3418 44.0837Z" fill="#219963"/>
<path d="M39.1114 44.0837C38.5916 44.0837 38.1758 43.6679 38.1758 43.1481V23.4102C38.1758 22.8904 38.5916 22.4746 39.1114 22.4746C39.6311 22.4746 40.0469 22.8904 40.0469 23.4102V43.1481C40.0469 43.6679 39.6311 44.0837 39.1114 44.0837Z" fill="#219963"/>
</g>
<defs>
<clipPath id="clip0_8961_44458">
<rect width="48" height="42.2956" fill="white" transform="translate(0 9)"/>
</clipPath>
</defs>
</svg>
