<svg width="60" height="60" viewBox="0 0 60 60" fill="none" xmlns="http://www.w3.org/2000/svg">
<g clip-path="url(#clip0_8961_44471)">
<path d="M22.5895 54.4251C21.3416 54.4251 20.2923 54.2407 19.6542 53.9004C17.598 53.3616 15.9673 52.8511 14.5209 52.3831C10.8482 51.2204 8.63614 50.5114 4.25445 51.0786C3.70142 51.1495 3.19094 50.7524 3.10585 50.1994C3.03495 49.6464 3.432 49.1217 3.98503 49.0508C8.8063 48.4269 11.3304 49.2351 15.1307 50.4405C16.5771 50.9084 18.222 51.4331 20.2781 51.9577C20.3773 51.9861 20.4624 52.0145 20.5475 52.0712C21.4692 52.6242 25.6666 52.6384 28.8713 50.6248L45.4338 40.1598C45.9017 39.9187 45.9584 39.5784 45.9584 39.3941C45.9584 39.1105 45.8166 38.7418 45.4338 38.5433C44.668 38.1462 43.3067 38.5574 41.8178 39.6493C41.4491 39.9187 40.9528 39.9046 40.5983 39.6351C40.2438 39.3515 40.102 38.8694 40.2722 38.4582C40.5558 37.7208 40.5558 37.0969 40.258 36.8558C39.8893 36.558 38.9251 36.6289 37.6914 37.4656L36.642 38.1888C36.3301 38.4015 35.9189 38.4298 35.5927 38.2455C35.2524 38.0753 35.0539 37.7208 35.0397 37.3521C35.0397 36.9409 34.9546 36.6289 34.827 36.558C34.6143 36.4304 33.806 36.4304 32.1895 37.2954L25.9502 40.6136C25.4539 40.883 24.8299 40.6845 24.5747 40.1882C24.3053 39.6919 24.5038 39.0679 25.0001 38.8127L31.2394 35.4945C33.2672 34.4168 34.8412 34.1899 35.8905 34.8139C36.1741 34.984 36.4861 35.2535 36.7129 35.6789C38.528 34.5019 40.3714 34.3317 41.5342 35.2676C42.0589 35.6789 42.3708 36.2461 42.4843 36.9125C44.3986 36.0617 45.689 36.3879 46.3697 36.7424C47.3906 37.267 48.0146 38.288 48.0146 39.4224C48.0146 40.5143 47.4332 41.4644 46.4547 41.9607L29.9773 52.3831C27.6376 53.8579 24.8016 54.4535 22.6036 54.4535L22.5895 54.4251Z" fill="#219963"/>
<path d="M24.064 46.6121C20.6324 46.6121 17.6404 45.2792 14.2372 43.535C13.7408 43.2798 13.5423 42.67 13.7976 42.1595C14.0528 41.6632 14.6767 41.4647 15.173 41.7199C21.1429 44.7687 24.5462 45.6337 30.1899 43.0529C30.6011 42.8969 31.1683 42.5991 31.0974 42.117C31.0549 41.8334 30.7996 41.5781 30.5586 41.564C29.1973 41.4789 28.0912 41.4647 27.1411 41.4505C23.3267 41.3796 21.8945 41.3513 17.0874 37.792L12.9609 34.7433C12.5213 34.4171 10.7205 34.1619 9.01884 34.8567L1.40406 37.9197C0.879395 38.1324 0.283827 37.8771 0.0711236 37.3524C-0.14158 36.8278 0.113664 36.2322 0.638332 36.0195L8.2531 32.9282C10.3234 32.0774 12.9326 32.1483 14.1804 33.07L18.3069 36.1329C22.5893 39.3093 23.5677 39.3235 27.1837 39.3944C28.1479 39.4086 29.2824 39.4369 30.6862 39.522C31.9057 39.5929 32.9267 40.5572 33.1252 41.805C33.2954 42.8685 32.8132 44.244 30.984 44.9389C28.389 46.13 26.1485 46.6121 24.064 46.6121Z" fill="#219963"/>
<path d="M23.9936 14.5642C23.4264 14.5642 22.9727 14.1105 22.9727 13.5433V10.9057C22.9727 10.3385 23.4264 9.88477 23.9936 9.88477C24.5608 9.88477 25.0146 10.3385 25.0146 10.9057V13.5433C25.0146 14.1105 24.5608 14.5642 23.9936 14.5642Z" fill="#219963"/>
<path d="M23.9936 28.7029C23.4264 28.7029 22.9727 28.2491 22.9727 27.6819V25.0444C22.9727 24.4772 23.4264 24.0234 23.9936 24.0234C24.5608 24.0234 25.0146 24.4772 25.0146 25.0444V27.6819C25.0146 28.2491 24.5608 28.7029 23.9936 28.7029Z" fill="#219963"/>
<path d="M23.9924 32.6021C16.6613 32.6021 10.6914 26.6322 10.6914 19.301C10.6914 11.9699 16.6613 6 23.9924 6C31.3236 6 37.2935 11.9699 37.2935 19.301C37.2935 26.6322 31.3236 32.6021 23.9924 32.6021ZM23.9924 8.04195C17.7815 8.04195 12.7334 13.0901 12.7334 19.301C12.7334 25.512 17.7815 30.5601 23.9924 30.5601C30.2034 30.5601 35.2515 25.512 35.2515 19.301C35.2515 13.0901 30.2034 8.04195 23.9924 8.04195Z" fill="#219963"/>
<path d="M24.5171 25.6546C24.191 25.6546 23.8648 25.6404 23.5245 25.5978C22.3901 25.4702 21.284 25.1015 20.1213 24.7187L19.9086 24.6478C19.3697 24.4634 19.0861 23.8962 19.2563 23.3574C19.4406 22.8185 20.0078 22.5349 20.5467 22.7051L20.7594 22.776C21.8654 23.1447 22.8155 23.4566 23.7372 23.5701C25.6232 23.7828 26.7151 23.2297 27.1263 22.6342C27.3674 22.2797 27.3957 21.8968 27.1972 21.5423C26.8852 20.9467 25.8784 20.2803 24.0066 20.3228H23.9783C21.5535 20.3228 19.71 19.4862 18.9443 18.0398C18.4055 17.033 18.4764 15.8419 19.1428 14.8634C20.1213 13.4312 22.1207 12.7506 24.503 13.0058C25.6516 13.1334 26.7576 13.5021 27.9204 13.8992L28.1189 13.9701C28.6578 14.1402 28.9414 14.7216 28.7712 15.2605C28.601 15.7993 28.0196 16.0829 27.4808 15.9128L27.2823 15.856C26.1762 15.4873 25.212 15.1612 24.2761 15.0619C22.3759 14.8492 21.2415 15.4306 20.8303 16.0404C20.6601 16.2814 20.5183 16.6643 20.7452 17.1039C21.0572 17.6853 22.1207 18.2667 24.0066 18.3092H24.035C26.4173 18.3092 28.2324 19.1458 28.9981 20.6064C29.5369 21.6274 29.466 22.8327 28.8137 23.7969C27.9913 25.0023 26.4173 25.6687 24.503 25.6687L24.5171 25.6546Z" fill="#219963"/>
</g>
<defs>
<clipPath id="clip0_8961_44471">
<rect width="48" height="48.4254" fill="white" transform="translate(0 6)"/>
</clipPath>
</defs>
</svg>
