<svg width="60" height="60" viewBox="0 0 60 60" fill="none" xmlns="http://www.w3.org/2000/svg">
<g clip-path="url(#clip0_8961_44479)">
<path d="M41.261 35.1533C41.0218 35.1533 40.7693 35.0603 40.5833 34.8743C40.2112 34.5022 40.2112 33.8909 40.5833 33.5188L43.5334 30.5819C48.2776 25.851 45.6597 19.552 41.9786 15.5919C40.663 14.1832 39.1879 13.0005 37.7261 12.1766C36.3972 11.4324 30.1381 9.29288 26.0052 13.3062L17.168 22.0902C16.7693 22.4889 16.9022 22.6218 17.0617 22.7945C17.9122 23.6583 20.7959 24.0703 22.4969 22.3959L24.7162 20.2032C26.6564 18.449 28.8092 19.1002 30.7228 19.6849C32.9022 20.3494 34.9753 20.9607 37.3806 19.0736C37.7926 18.7547 38.3906 18.8211 38.7228 19.2331C39.055 19.645 38.9753 20.243 38.5633 20.5753C35.374 23.1002 32.4902 22.2231 30.1647 21.5188C28.2245 20.9341 27.0816 20.655 26.0318 21.5985L23.8391 23.7646C21.3407 26.2231 17.2344 25.7048 15.6929 24.15C14.6962 23.1401 14.7361 21.7979 15.7992 20.7347L24.6364 11.9374C29.2477 7.48557 36.0783 9.04038 38.6696 10.5022C40.3042 11.4191 41.9387 12.7214 43.3873 14.2896C47.9853 19.2331 50.2311 26.5952 44.8889 31.9374L41.9387 34.8743C41.7527 35.0603 41.5002 35.1533 41.261 35.1533Z" fill="#219963"/>
<path d="M6.85696 33.7574C6.61776 33.7574 6.36526 33.6643 6.17922 33.4783L3.24234 30.5414C-2.20616 25.1062 -0.0533408 17.9434 4.25231 13.5713C8.82374 8.93345 16.2922 6.99325 21.7008 12.269L23.6942 14.2491C24.0663 14.6212 24.0663 15.2325 23.6942 15.6045C23.3221 15.9766 22.7108 15.9766 22.3387 15.6045L20.3586 13.6378C15.641 9.03976 9.40845 11.073 5.60779 14.9135C1.9533 18.6344 0.0795494 24.681 4.59782 29.1859L7.5347 32.1228C7.90679 32.4949 7.90679 33.1062 7.5347 33.4783C7.34865 33.6643 7.09616 33.7574 6.85696 33.7574Z" fill="#219963"/>
<path d="M39.4962 40.9193C38.5926 40.9193 37.6225 40.534 36.7188 39.6037L31.3899 34.1021C31.0178 33.7167 31.0311 33.1187 31.4165 32.7466C31.8019 32.3745 32.3999 32.3878 32.772 32.7732L38.1009 38.2748C39.257 39.4708 40.174 38.9393 40.6125 38.514C41.37 37.7964 41.6624 36.4675 40.8384 35.6037L29.4497 23.6702C29.0776 23.2848 29.1042 22.6868 29.4763 22.3147C29.8617 21.9559 30.4597 21.9559 30.8318 22.3413L42.2205 34.2748C43.8683 35.9891 43.3501 38.5273 41.9414 39.8828C41.2903 40.5074 40.4398 40.9061 39.5095 40.9061L39.4962 40.9193Z" fill="#219963"/>
<path d="M35.1626 44.9334C34.259 44.9334 33.342 44.6012 32.5978 43.8437L26.7374 37.8238C26.3653 37.4517 26.3786 36.8404 26.7506 36.4683C27.1227 36.0962 27.734 36.1095 28.1061 36.4816L33.9666 42.5015C34.857 43.4052 36.1593 42.9401 36.7972 42.3155C37.1958 41.9301 37.9666 40.9068 36.7174 39.6045L30.9898 33.6909C30.6178 33.3055 30.631 32.7075 31.0164 32.3354C31.4018 31.9633 31.9998 31.9766 32.3719 32.362L38.0995 38.2756C39.9732 40.2025 39.4284 42.4351 38.1394 43.6843C37.3553 44.4417 36.2523 44.9201 35.1626 44.9201V44.9334Z" fill="#219963"/>
<path d="M30.4737 48.5223C29.5701 48.5223 28.6398 48.1901 27.8956 47.4326L24.9588 44.4824C24.5867 44.1103 24.5867 43.499 24.9588 43.1269C25.3309 42.7548 25.9421 42.7548 26.3142 43.1269L29.2378 46.0771C30.1282 46.9808 31.4039 46.5422 32.0152 45.9442C32.3873 45.5854 33.1315 44.5887 31.8823 43.2864C31.5235 42.901 31.5368 42.303 31.9222 41.9309C32.3076 41.5721 32.9056 41.5854 33.2777 41.9575C35.1382 43.911 34.6598 46.0505 33.3707 47.313C32.6132 48.0439 31.5501 48.509 30.4737 48.509V48.5223Z" fill="#219963"/>
<path d="M21.8205 52.6547C20.8371 52.6547 19.9069 52.2693 19.2159 51.5783L18.8969 51.2727C18.2059 50.5816 17.8205 49.6514 17.8205 48.668C17.8205 48.6281 17.8205 48.6016 17.8205 48.5617C16.691 48.7345 15.5082 48.3889 14.6444 47.5252L14.3255 47.2062C13.6345 46.5152 13.2491 45.585 13.2491 44.6016C13.2491 44.575 13.2491 44.5484 13.2491 44.5218C12.0929 44.7345 10.8571 44.4022 9.9667 43.5119L9.64776 43.1929C8.95673 42.5019 8.57135 41.585 8.57135 40.5883C8.57135 40.482 8.57135 40.3889 8.57135 40.2959C8.42517 40.3092 8.27899 40.3225 8.13281 40.3225C7.14942 40.3225 6.21919 39.9371 5.52816 39.2461L5.20922 38.9404C3.77401 37.5052 3.77401 35.1663 5.20922 33.7311L9.26238 29.678C9.95341 28.9869 10.8704 28.6016 11.867 28.6016C12.8504 28.6016 13.7807 28.9869 14.4717 29.678L14.7906 29.9969C15.3089 30.5152 15.6411 31.1531 15.7873 31.8441L16.0929 31.5384C17.475 30.1564 19.9069 30.1564 21.3022 31.5384L21.6212 31.8574C22.8969 33.1331 23.0431 35.1398 22.0331 36.5617C22.7375 36.6946 23.4019 37.0268 23.9468 37.5717L24.2657 37.8906C25.4617 39.0866 25.6611 40.9205 24.8637 42.3158C25.5813 42.4487 26.2591 42.781 26.8039 43.3258L27.1228 43.6448C28.5581 45.08 28.5581 47.4188 27.1228 48.8541L24.3986 51.5783C23.7076 52.2693 22.7906 52.6547 21.7939 52.6547H21.8205ZM24.2258 44.1896C23.774 44.1896 23.3222 44.3624 22.9767 44.7079L20.2657 47.4321C19.9335 47.7644 19.7474 48.2029 19.7474 48.6813C19.7474 49.1597 19.9335 49.5982 20.2657 49.9305L20.5846 50.2494C21.2491 50.9139 22.4318 50.9139 23.083 50.2494L25.8072 47.5252C26.4983 46.8341 26.4983 45.7178 25.8072 45.0268L25.4883 44.7079C25.1428 44.3624 24.691 44.1896 24.2391 44.1896H24.2258ZM21.382 38.4354C20.9302 38.4354 20.4783 38.6082 20.1328 38.9537L15.7076 43.379C15.3753 43.7112 15.1893 44.1497 15.1893 44.6281C15.1893 45.1065 15.3753 45.5451 15.7076 45.8773L16.0265 46.1962C16.7175 46.8873 17.8338 46.8873 18.5248 46.1962L22.9501 41.771C23.6411 41.08 23.6411 39.9637 22.9501 39.2727L22.6312 38.967C22.2856 38.6215 21.8338 38.4487 21.382 38.4487V38.4354ZM18.7375 32.4022C18.2591 32.4022 17.8205 32.5883 17.4883 32.9205L11.0298 39.379C10.6976 39.7112 10.5115 40.1497 10.5115 40.6281C10.5115 41.1065 10.6976 41.5451 11.0298 41.8773L11.3488 42.1962C12.0265 42.874 13.1694 42.874 13.8471 42.1962L20.3056 35.7378C20.9966 35.0467 20.9966 33.9305 20.3056 33.2394L19.9866 32.9205C19.6544 32.5883 19.2159 32.4022 18.7375 32.4022ZM11.9202 30.5418C11.4418 30.5418 11.0032 30.7278 10.671 31.06L6.61786 35.1132C5.92683 35.8042 5.92683 36.9205 6.61786 37.6115L6.9368 37.9172C7.26902 38.2494 7.70756 38.4354 8.18597 38.4354C8.66437 38.4354 9.10291 38.2494 9.43514 37.9305L13.4883 33.8773C13.8205 33.5451 13.9933 33.1065 13.9933 32.6281C13.9933 32.1497 13.8072 31.7112 13.4883 31.379L13.1694 31.06C12.8371 30.7278 12.3986 30.5418 11.9202 30.5418Z" fill="#219963"/>
</g>
<defs>
<clipPath id="clip0_8961_44479">
<rect width="48" height="43.6545" fill="white" transform="translate(0 9)"/>
</clipPath>
</defs>
</svg>
