<?xml version="1.0" encoding="UTF-8"?>
<svg xmlns="http://www.w3.org/2000/svg" width="47" height="69" viewBox="0 0 47 69" fill="none">
  <g clip-path="url(#clip0_7494_28363)">
    <path d="M33.3788 36.2174C32.8676 35.7062 32.0354 35.7062 31.5279 36.2174C31.0167 36.7286 31.0167 37.5608 31.5279 38.0682C32.0392 38.5795 32.8713 38.5795 33.3788 38.0682C33.89 37.557 33.89 36.7249 33.3788 36.2174Z" fill="#1F9763" stroke="white" stroke-miterlimit="10"></path>
    <path d="M23.2824 0.984375C22.5585 0.984375 21.9727 1.57023 21.9727 2.29415V5.30924C21.9727 6.03316 22.5585 6.61901 23.2824 6.61901C24.0063 6.61901 24.5922 6.03316 24.5922 5.30924V2.29415C24.5922 1.57023 24.0063 0.984375 23.2824 0.984375Z" fill="#1F9763" stroke="white" stroke-miterlimit="10"></path>
    <path d="M33.3771 6.99865C32.8659 6.48743 32.0374 6.48743 31.5225 6.99865L28.9029 9.6182C28.3917 10.1294 28.3917 10.9578 28.9029 11.4728C29.4142 11.984 30.2426 11.984 30.7575 11.4728L33.3771 8.85323C33.8883 8.34201 33.8883 7.5136 33.3771 6.99865Z" fill="#1F9763" stroke="white" stroke-miterlimit="10"></path>
    <path d="M17.6583 9.6221L15.0388 7.00256C14.5276 6.49134 13.6992 6.49134 13.1842 7.00256C12.673 7.51378 12.673 8.34218 13.1842 8.85714L15.8037 11.4767C16.315 11.9879 17.1434 11.9879 17.6583 11.4767C18.1695 10.9655 18.1695 10.1371 17.6583 9.6221Z" fill="#1F9763" stroke="white" stroke-miterlimit="10"></path>
    <path d="M44.5137 37.557C41.3941 32.9038 35.4684 29.5267 28.524 28.3923V24.9593C28.524 23.4629 27.9008 22.0487 26.744 21.0262C27.8336 20.0635 28.524 18.6604 28.524 17.0969C28.524 15.9551 28.162 14.8692 27.4754 13.955L24.3297 9.7607C24.0834 9.43232 23.6954 9.23828 23.2812 9.23828C22.867 9.23828 22.4789 9.43232 22.2326 9.7607L19.0869 13.955C18.4003 14.8692 18.0383 15.9551 18.0383 17.0969C18.0383 18.6604 18.7287 20.0672 19.8183 21.0262C18.7287 21.989 18.0383 23.392 18.0383 24.9556V28.3886C11.0902 29.523 5.16822 32.9 2.04492 37.5533C0.28736 40.184 -0.0372844 43.6133 1.20159 46.509C2.21284 48.8711 4.09354 50.5503 6.44068 51.2257L9.71698 65.0734C9.71698 65.0734 9.71698 65.0846 9.72071 65.0921C10.161 66.8459 11.7283 68.0699 13.5344 68.0699H33.0242C34.8303 68.0699 36.3975 66.8459 36.8379 65.0921C36.8379 65.0846 36.8379 65.0809 36.8416 65.0734L40.1179 51.2257C42.465 50.554 44.3495 48.8748 45.357 46.509C46.5959 43.6133 46.2712 40.184 44.5099 37.557H44.5137ZM21.184 15.5259L23.2812 12.7273L25.3783 15.5259C25.7216 15.9812 25.9007 16.5223 25.9007 17.0969C25.9007 18.541 24.7253 19.7165 23.2812 19.7165C21.837 19.7165 20.6616 18.541 20.6616 17.0969C20.6616 16.526 20.8407 15.9849 21.184 15.5259ZM20.6616 24.9556C20.6616 23.5115 21.837 22.336 23.2812 22.336C24.7253 22.336 25.9007 23.5077 25.9007 24.9556V31.1499C24.2514 31.9895 22.3072 31.9895 20.6616 31.1499V24.9556ZM13.5381 65.4391C12.9373 65.4391 12.4149 65.0324 12.2694 64.454L9.21695 51.5466C10.9745 51.4831 12.6425 50.9234 14.0568 49.9532L15.9151 65.4391H13.5418H13.5381ZM21.9714 65.4391H18.5496L16.5271 48.5837C17.945 50.1286 19.8668 51.1548 21.9714 51.457V65.4391ZM28.0165 65.4391H24.5947V51.457C26.703 51.1548 28.621 50.1286 30.039 48.5837L28.0165 65.4391ZM34.3004 64.454C34.1512 65.0361 33.6287 65.4391 33.0317 65.4391H30.6584L32.5167 49.9532C33.931 50.9234 35.599 51.4831 37.3566 51.5466L34.3042 64.454H34.3004ZM42.9539 45.4753C40.8493 50.401 33.8452 49.9308 31.6883 45.0052C31.4794 44.5275 31.0092 44.2215 30.4868 44.2215C29.9644 44.2215 29.4942 44.5313 29.2852 45.0052C28.2404 47.3934 25.8858 48.9345 23.2812 48.9345C20.6765 48.9345 18.3182 47.3934 17.2771 45.0052C17.0681 44.5275 16.598 44.2215 16.0755 44.2215C15.5531 44.2215 15.0829 44.5313 14.874 45.0052C12.7283 49.9084 5.72423 50.4196 3.60844 45.4753C2.7166 43.3857 2.95169 40.9117 4.22414 39.016C6.88474 35.0494 11.982 32.1313 18.0383 31.0492V31.9C18.0383 32.3366 18.2585 32.747 18.6205 32.9896C20.0347 33.9337 21.6579 34.4038 23.2774 34.4038C24.8969 34.4038 26.5201 33.9337 27.9344 32.9896C28.3001 32.747 28.5165 32.3366 28.5165 31.9V31.0492C34.5728 32.1276 39.6701 35.0457 42.3307 39.016C43.6032 40.9117 43.8383 43.3894 42.9464 45.4753H42.9539Z" fill="#1F9763" stroke="white" stroke-miterlimit="10"></path>
    <path d="M38.9402 41.7771L37.0856 39.9225C36.5744 39.4113 35.746 39.4113 35.2311 39.9225C34.7199 40.4337 34.7199 41.2621 35.2311 41.7771L37.0856 43.6316C37.5969 44.1429 38.4253 44.1429 38.9402 43.6316C39.4515 43.1204 39.4515 42.292 38.9402 41.7771Z" fill="#1F9763" stroke="white" stroke-miterlimit="10"></path>
    <path d="M10.1793 42.3867H7.55977C6.83585 42.3867 6.25 42.9726 6.25 43.6965C6.25 44.4204 6.83585 45.0063 7.55977 45.0063H10.1793C10.9032 45.0063 11.4891 44.4204 11.4891 43.6965C11.4891 42.9726 10.9032 42.3867 10.1793 42.3867Z" fill="#1F9763" stroke="white" stroke-miterlimit="10"></path>
    <path d="M17.2723 35.2916C16.761 34.7804 15.9326 34.7804 15.4177 35.2916L13.5631 37.1425C13.0519 37.6537 13.0519 38.4821 13.5631 38.997C13.8206 39.2545 14.1527 39.3814 14.4885 39.3814C14.8244 39.3814 15.1602 39.2545 15.414 38.997L17.2685 37.1462C17.7798 36.635 17.7798 35.8066 17.2685 35.2916H17.2723Z" fill="#1F9763" stroke="white" stroke-miterlimit="10"></path>
    <path d="M25.1355 40.5319C24.6243 40.0206 23.7959 40.0206 23.281 40.5319L21.4264 42.3827C20.9152 42.8939 20.9152 43.7223 21.4264 44.2373C21.9376 44.7485 22.766 44.7485 23.281 44.2373L25.1355 42.3864C25.6468 41.8752 25.6468 41.0468 25.1355 40.5319Z" fill="#1F9763" stroke="white" stroke-miterlimit="10"></path>
  </g>
  <defs>
    <clipPath id="clip0_7494_28363">
      <rect width="46.5623" height="68" fill="white" transform="translate(0 0.525391)"></rect>
    </clipPath>
  </defs>
</svg>
