<?xml version="1.0" encoding="UTF-8"?>
<svg xmlns="http://www.w3.org/2000/svg" width="34" height="41" viewBox="0 0 34 41" fill="none">
  <path d="M1.11257 22.2761C1.11257 22.2761 1.11257 22.2786 1.11257 22.2798C0.587135 25.354 0.419839 28.4774 0.61192 31.5897C0.953947 37.1163 5.73985 41.3207 11.3027 40.9809C13.5792 40.8418 15.7404 39.9418 17.4344 38.4263C20.1855 35.9652 22.7445 33.2998 25.0892 30.4546L25.7336 29.6728C26.3594 28.9218 26.4882 27.8766 26.0632 26.9976C26.0049 26.8769 25.938 26.7599 25.8624 26.6491C27.1202 25.9634 27.6804 24.4639 27.176 23.1305L26.0719 20.2053C24.2031 15.2549 18.6489 12.7458 13.6659 14.6024C13.5272 14.6541 13.3896 14.7095 13.2533 14.7674L11.6646 15.4433L16.8062 5.2063C17.6959 3.42237 16.9623 1.25925 15.1667 0.375292C13.5086 -0.440956 11.4973 0.113059 10.4997 1.66061L10.0201 2.40914C8.23937 1.18908 5.79933 1.63352 4.57001 3.40391C4.22427 3.90129 3.99997 4.47254 3.9157 5.07088L3.87729 5.34296C2.25142 4.89236 0.566068 5.83665 0.112511 7.45068C0.0158509 7.79417 -0.0188475 8.15243 0.00965472 8.50823L1.11133 22.2749L1.11257 22.2761ZM5.35816 5.27402C5.54777 3.93576 6.79319 3.00379 8.13899 3.19215C8.53554 3.24755 8.91351 3.39898 9.23819 3.63167L6.95429 7.19583C6.02115 8.65351 5.18219 10.1678 4.44237 11.7301L5.35692 5.27402H5.35816ZM8.18236 7.97268L11.7278 2.43869C12.2879 1.56458 13.3933 1.21001 14.3624 1.59166C15.4777 2.03118 16.023 3.28572 15.5806 4.39375C15.5583 4.45038 15.5322 4.50701 15.505 4.56118L9.54799 16.4196L6.89605 18.5322C6.58252 18.7821 6.53171 19.2364 6.78328 19.5479C7.03484 19.8594 7.49211 19.9099 7.80564 19.6599L10.5059 17.5091L13.827 16.0958C14.8457 15.6612 15.9424 15.4383 17.0503 15.4396C20.4569 15.4507 23.5042 17.5485 24.7112 20.7138L25.8153 23.639C26.0929 24.374 25.7174 25.1927 24.9789 25.4685C24.8178 25.5288 24.648 25.5584 24.477 25.5584C23.9639 25.5584 23.4906 25.285 23.2353 24.8431L21.944 22.5974C20.9811 20.9231 18.8335 20.3408 17.1469 21.2974C16.3501 21.7492 15.7627 22.494 15.5112 23.3706L15.1109 24.763C14.6759 26.2823 15.3203 27.9037 16.6822 28.7175L16.9734 28.8911C18.1396 29.5817 19.6006 29.5473 20.732 28.8024L23.1733 27.1859C23.3505 27.0677 23.5599 27.0049 23.7731 27.0049C24.3704 27.0049 24.8549 27.4863 24.8537 28.0797C24.8537 28.3272 24.767 28.5673 24.6096 28.7593L23.9652 29.5411C21.6664 32.3309 19.1594 34.9421 16.4629 37.3539C12.9175 40.5241 7.45742 40.2385 4.2664 36.7162C2.9615 35.2758 2.18574 33.4377 2.06553 31.5035C1.55249 23.2155 3.69388 14.9791 8.18236 7.97392V7.97268ZM22.3021 26.0225L19.9228 27.5984C19.2598 28.0354 18.4035 28.0551 17.7195 27.6501L17.4282 27.4765C16.6289 26.9988 16.2522 26.0496 16.5075 25.1582L16.9078 23.7658C17.2201 22.6787 18.3601 22.0496 19.4544 22.3598C19.9724 22.5063 20.4111 22.8486 20.6775 23.3127L21.9688 25.5584C22.0642 25.7233 22.1745 25.8785 22.3009 26.0213L22.3021 26.0225ZM1.73838 7.36819C2.16467 6.74647 2.97389 6.50885 3.67281 6.80187L2.18202 17.3257C2.18202 17.3331 2.18078 17.3417 2.17954 17.3491L1.46327 8.39374C1.43477 8.03055 1.53143 7.66859 1.73962 7.36696L1.73838 7.36819Z" fill="#1F9763"></path>
  <path d="M29.3351 25.8457C29.4255 25.8457 29.5148 25.8285 29.599 25.7965L32.5323 24.6626C32.9078 24.521 33.0974 24.1036 32.9549 23.7306C32.8123 23.3576 32.3922 23.1692 32.0168 23.3108C32.013 23.312 32.0081 23.3145 32.0044 23.3157L29.0699 24.4496C28.6956 24.5936 28.5097 25.0135 28.6547 25.3853C28.7638 25.6635 29.0327 25.8469 29.3326 25.8457H29.3351Z" fill="#1F9763"></path>
  <path d="M28.8895 28.013L32.104 28.7468C32.4944 28.8403 32.8872 28.6015 32.9814 28.2137C33.0756 27.8259 32.8352 27.4356 32.4448 27.342C32.4399 27.342 32.4349 27.3396 32.43 27.3383L29.2154 26.6046C28.8238 26.5147 28.4335 26.7585 28.343 27.1475C28.2525 27.5366 28.4979 27.9244 28.8895 28.0142V28.013Z" fill="#1F9763"></path>
  <path d="M29.9 32.2364C30.1838 32.5183 30.6447 32.5183 30.9285 32.2364C31.2123 31.9545 31.2123 31.4965 30.9285 31.2145L28.7648 29.065C28.4811 28.783 28.0201 28.783 27.7363 29.065C27.4525 29.3469 27.4525 29.8049 27.7363 30.0868L29.9 32.2364Z" fill="#1F9763"></path>
</svg>
