<?xml version="1.0" encoding="UTF-8"?>
<svg xmlns="http://www.w3.org/2000/svg" width="57" height="42" viewBox="0 0 57 42" fill="none">
  <path d="M51.166 1.11914H5.83398C3.16885 1.11914 1 3.36984 1 6.13555V36.234C1 38.9997 3.16885 41.2504 5.83398 41.2504H51.166C53.8312 41.2504 56 38.9997 56 36.234V6.13555C56 3.36984 53.8312 1.11914 51.166 1.11914ZM17.1133 37.9062H5.83398C4.94561 37.9062 4.22266 37.1559 4.22266 36.234V17.8405H7.70957C8.51309 20.332 10.9784 21.8325 13.476 21.3241L10.9387 25.2737C10.4445 26.0418 10.6454 27.0807 11.3855 27.5924C12.1257 28.1041 13.1269 27.8967 13.6199 27.1287L17.1133 21.6909V37.9062ZM10.668 16.1661C10.668 14.6434 12.2997 13.7326 13.5232 14.5798L15.8188 16.1684L13.5232 17.7569C12.3029 18.6008 10.668 17.7001 10.668 16.1661ZM17.1133 13.0437L15.3118 11.7974C12.5296 9.87333 8.76338 11.2322 7.70957 14.4962H4.22266V6.13555C4.22266 5.21365 4.94561 4.46341 5.83398 4.46341H17.1133V13.0437ZM52.7773 36.234C52.7773 37.1559 52.0544 37.9062 51.166 37.9062H20.3359V21.6909L23.8293 27.1287C24.3234 27.8979 25.3246 28.1041 26.0637 27.5924C26.8038 27.0796 27.0047 26.0418 26.5105 25.2737L23.9732 21.3241C26.4601 21.8291 28.9318 20.3431 29.7396 17.8405H52.7773V36.234ZM21.6293 16.1684L23.9249 14.5798C25.1452 13.736 26.7802 14.6367 26.7802 16.1706C26.7802 17.7045 25.1463 18.6019 23.9249 17.7569L21.6293 16.1684ZM52.7773 14.4962H29.7407C28.688 11.2333 24.9207 9.87222 22.1385 11.7974L20.337 13.0437V4.46341H51.1671C52.0555 4.46341 52.7784 5.21365 52.7784 6.13555V14.4962H52.7773Z" fill="#1F9763" stroke="white" stroke-width="1.5" stroke-miterlimit="10"></path>
</svg>
