<?xml version="1.0" encoding="UTF-8"?>
<svg xmlns="http://www.w3.org/2000/svg" width="47" height="45" viewBox="0 0 47 45" fill="none">
  <path d="M47 18.5808C47.008 14.4246 43.9404 10.8916 39.7966 10.2869C38.0113 5.20384 32.5505 2.37451 27.3279 3.82812C23.7973 -0.563085 17.3495 -1.28263 12.925 2.22136C11.5707 3.29342 10.5132 4.68762 9.84937 6.2759H9.40506C4.73179 6.25478 0.925873 9.99905 0.905918 14.6372C0.889955 18.2785 3.24055 21.5157 6.72588 22.6525C7.65441 28.1937 12.9316 31.9393 18.5161 31.019C19.3302 30.8844 20.1244 30.6533 20.8814 30.3312C25.258 33.8933 31.7151 33.2595 35.3042 28.9158C35.8443 28.2623 36.3006 27.5454 36.6611 26.7797C37.2757 26.9183 37.9049 26.9883 38.5368 26.9869C43.2087 26.979 46.9933 23.2202 46.9987 18.5834L47 18.5808ZM36.4589 25.3881C36.137 25.2917 35.7938 25.4567 35.67 25.767C33.8303 30.3193 28.6209 32.5294 24.0354 30.7035C23.071 30.3193 22.181 29.7714 21.4055 29.0848C21.2844 28.9779 21.1288 28.9185 20.9665 28.9185C20.8707 28.9185 20.7763 28.9396 20.6898 28.9805C19.4886 29.5549 18.1729 29.8532 16.84 29.8519C12.3303 29.8453 8.5284 26.5156 7.96037 22.0755C7.92978 21.8141 7.74088 21.5976 7.48547 21.5316C3.67422 20.4807 1.44335 16.5634 2.50225 12.7809C3.36161 9.7086 6.17913 7.58032 9.39308 7.57504C9.66047 7.57504 9.92652 7.59221 10.1926 7.62125C10.4932 7.6569 10.7779 7.48262 10.8817 7.20141C12.5392 2.58575 17.6541 0.177584 22.3061 1.82396C24.0102 2.42732 25.4894 3.52842 26.5497 4.98468C26.7173 5.21176 27.0126 5.3055 27.2813 5.21837C31.9772 3.67233 37.0469 6.19668 38.6046 10.8572C38.6272 10.9232 38.6485 10.9893 38.6685 11.0553C38.747 11.3048 38.9705 11.483 39.2325 11.5068C43.1661 11.9095 46.0276 15.4003 45.6218 19.3056C45.2161 23.2097 41.6988 26.0495 37.7639 25.6469C37.3222 25.602 36.8846 25.5162 36.4589 25.3894V25.3881ZM13.4291 35.4499C13.4291 33.6662 11.5801 32.2205 9.31327 32.2205C7.04648 32.2205 5.21335 33.6411 5.21335 35.4499C5.21335 37.2586 7.06244 38.6739 9.32923 38.6739C11.596 38.6739 13.4291 37.2018 13.4291 35.4499ZM6.50239 35.4499C6.50239 34.4134 7.78744 33.5157 9.31194 33.5157C10.8364 33.5157 12.1215 34.4016 12.1215 35.4499C12.1215 36.4981 10.8311 37.3788 9.31194 37.3788C7.79276 37.3788 6.50239 36.4876 6.50239 35.4499ZM3.25386 39.8147C1.45665 39.8147 0 40.9765 0 42.4063C0 43.8362 1.45798 44.998 3.25386 44.998C5.04973 44.998 6.50239 43.8415 6.50239 42.4063C6.50239 40.9712 5.04441 39.7882 3.25386 39.7882V39.8147ZM3.25386 43.687C2.20959 43.687 1.305 43.0955 1.305 42.4011C1.305 41.7066 2.19762 41.1098 3.25386 41.1098C4.3101 41.1098 5.21202 41.6696 5.21202 42.3746C5.21202 43.0797 4.30877 43.6606 3.25386 43.6606V43.687Z" fill="#1F9763"></path>
</svg>
