<?xml version="1.0" encoding="UTF-8"?>
<svg xmlns="http://www.w3.org/2000/svg" width="29" height="48" viewBox="0 0 29 48" fill="none">
  <g clip-path="url(#clip0_7494_28548)">
    <path d="M28.9866 41.087V12.696C28.9866 11.6964 28.7742 10.8372 28.3604 10.161C28.3507 10.1512 28.3397 10.1305 28.3299 10.1207C28.0272 9.68619 27.7038 9.2822 27.3901 8.8782C26.5614 7.81755 25.7741 6.80816 25.5019 5.69625V5.65598H25.9157C26.5821 5.65598 27.3193 5.09087 27.3193 4.27189V1.38409C27.3193 0.56633 26.5821 0 25.9157 0H3.0904C2.29217 0 1.68678 0.595623 1.68678 1.38409V4.27311C1.68678 5.06035 2.29339 5.6572 3.0904 5.6572H3.35282V5.74752C3.2625 6.85821 2.47403 7.81755 1.64651 8.83792C1.3133 9.24192 0.970328 9.66667 0.666414 10.1C0 10.9287 0 11.8673 0 12.696V41.1175C0 43.4207 1.08018 45.531 2.88902 46.7637C3.56519 47.2886 4.42445 47.5717 5.313 47.5717C5.4851 47.5717 5.65598 47.562 5.83784 47.5412H23.189C24.5121 47.5412 25.6533 47.1775 26.5016 46.4903C28.2591 45.0562 29.1172 43.1875 28.9866 41.087ZM3.21124 4.14129V1.50492H25.8046V4.14129H3.21124ZM25.552 45.2991C24.8245 45.8849 23.875 46.0058 23.1988 46.0058H5.79756C5.76705 46.0058 5.72677 46.0058 5.69625 46.0155C5.02008 46.1059 4.32315 45.935 3.81785 45.5407C3.80808 45.531 3.78733 45.52 3.77757 45.5102C2.3532 44.5509 1.53544 42.9447 1.53544 41.1065V12.6851C1.53544 11.9173 1.55619 11.423 1.87841 11.0288C1.88817 11.008 1.90892 10.9983 1.91869 10.9787C2.1811 10.5845 2.50455 10.2013 2.83775 9.79726C3.74705 8.68657 4.77719 7.4343 4.88826 5.82807V5.65598H23.997V5.77681C23.997 5.82685 24.0068 5.88788 24.0178 5.93792C24.3412 7.41233 25.2908 8.63409 26.2098 9.80581C26.5028 10.1793 26.8055 10.5735 27.0886 10.9678C27.3511 11.4023 27.4829 11.9784 27.4829 12.6851V41.1566C27.5842 42.7823 26.9373 44.1762 25.5532 45.2979L25.552 45.2991Z" fill="#1F9763"></path>
    <path d="M9.66148 34.3029C9.46864 34.3029 9.27823 34.2431 9.11468 34.1247C8.81077 33.905 8.66918 33.5254 8.75218 33.1605L9.8824 28.1819L6.04991 24.8205C5.76796 24.5752 5.66055 24.1846 5.77651 23.8282C5.89246 23.4731 6.20736 23.2204 6.57962 23.1862L11.651 22.7261L13.6563 18.0343C13.804 17.6902 14.1409 17.4668 14.5143 17.4668C14.8878 17.4668 15.2247 17.6889 15.3724 18.0331L17.3777 22.7261L22.4478 23.1862C22.8213 23.2204 23.1362 23.4731 23.2522 23.8282C23.3681 24.1834 23.2607 24.574 22.9788 24.8205L19.1463 28.1807L20.2765 33.1593C20.3595 33.5254 20.2167 33.9038 19.914 34.1235C19.6113 34.3432 19.2073 34.3603 18.8875 34.1686L14.5143 31.5555L10.1412 34.1699C9.99347 34.2577 9.82869 34.3029 9.6627 34.3029H9.66148ZM14.5131 30.4301C14.6791 30.4301 14.8439 30.4753 14.9916 30.562L19.1182 33.0299L18.0515 28.3308C17.9758 27.9964 18.0893 27.6473 18.3468 27.4215L21.9657 24.2481L17.1776 23.8136C16.8334 23.7819 16.5368 23.5658 16.4013 23.2473L14.5119 18.8192L12.6201 23.2473C12.487 23.5622 12.1904 23.7794 11.8462 23.8112L7.05807 24.2457L10.677 27.4191C10.9357 27.6461 11.0492 27.9939 10.9723 28.3296L9.90681 33.0274L14.0335 30.5595C14.1811 30.4716 14.3459 30.4277 14.5119 30.4277L14.5131 30.4301ZM11.6107 22.8189C11.6107 22.8189 11.6107 22.8189 11.6107 22.8201V22.8189Z" fill="#1F9763"></path>
  </g>
  <defs>
    <clipPath id="clip0_7494_28548">
      <rect width="29" height="47.5705" fill="white"></rect>
    </clipPath>
  </defs>
</svg>
