<?xml version="1.0" encoding="UTF-8"?>
<svg xmlns="http://www.w3.org/2000/svg" width="49" height="49" viewBox="0 0 49 49" fill="none">
  <path d="M46.5498 4.08313H45.66C45.2643 1.72609 43.2233 0 40.8339 0C38.4445 0 36.4036 1.72609 36.0079 4.08313H31.7779C31.3797 1.72609 29.3387 0 26.9493 0C24.5599 0 22.519 1.72609 22.1232 4.08313H18.7096C18.3127 1.72609 16.273 0 13.8823 0C11.4917 0 9.45199 1.72609 9.05625 4.08313H7.34882C5.99608 4.08313 4.89845 5.17951 4.89845 6.5335V32.6675C4.9669 36.33 3.36774 39.8245 0.55274 42.1678C0.0524603 42.5909 -0.130478 43.2816 0.096017 43.8964C0.322512 44.5112 0.90866 44.9194 1.5645 44.9169H4.89845V46.5496C4.89845 47.9024 5.99483 49 7.34882 49H46.5486C47.9013 49 48.999 47.9036 48.999 46.5496V6.53226C48.999 5.17951 47.9026 4.08188 46.5486 4.08188L46.5498 4.08313ZM40.8327 1.63275C42.3174 1.63773 43.6116 2.64451 43.9837 4.08313H37.6817C38.0525 2.64576 39.3468 1.63897 40.8327 1.63275ZM26.9493 1.63275C28.434 1.63773 29.7282 2.64451 30.1003 4.08313H23.7983C24.1692 2.64576 25.4634 1.63897 26.9493 1.63275ZM13.8823 1.63275C15.367 1.63773 16.6612 2.64451 17.0333 4.08313H10.7313C11.1022 2.64576 12.3964 1.63897 13.8823 1.63275ZM47.3662 46.5496C47.3662 47.0001 47.0003 47.366 46.5498 47.366H7.34882C6.89832 47.366 6.53245 47.0001 6.53245 46.5496V44.9169H41.8121C42.458 44.9169 43.0902 44.7265 43.6303 44.3718C45.2481 43.2493 46.5374 41.7173 47.3662 39.9303V46.5496ZM42.7343 43.0041C42.4605 43.1846 42.1406 43.2816 41.8121 43.2829L1.70637 43.3302C4.81258 40.6645 6.57974 36.7593 6.53245 32.6663V6.53226C6.53245 6.08175 6.89832 5.71588 7.34882 5.71588H9.05625C9.45572 8.07043 11.4942 9.79527 13.8823 9.799C14.3328 9.799 14.6987 9.43313 14.6987 8.98263C14.6987 8.53213 14.3328 8.16625 13.8823 8.16625C12.3977 8.16127 11.1034 7.15449 10.7313 5.71588H22.122C22.5215 8.07043 24.5599 9.79527 26.9481 9.799C27.3986 9.799 27.7645 9.43313 27.7645 8.98263C27.7645 8.53213 27.3986 8.16625 26.9481 8.16625C25.4634 8.16127 24.1692 7.15449 23.7971 5.71588H36.0041C36.4036 8.07043 38.4421 9.79527 40.8302 9.799C41.2807 9.799 41.6466 9.43313 41.6466 8.98263C41.6466 8.53213 41.2807 8.16625 40.8302 8.16625C39.3456 8.16127 38.0513 7.15449 37.6792 5.71588H46.5461C46.9966 5.71588 47.3625 6.08175 47.3625 6.53226V32.6663C47.3625 37.1041 45.5443 41.1598 42.7305 43.0041H42.7343Z" fill="#1F9763"></path>
  <path d="M19.4775 33.9985C19.2586 33.9985 19.0411 33.9306 18.855 33.7977C18.5094 33.5497 18.3471 33.1215 18.4409 32.7096L19.7277 27.0918L15.3638 23.2989C15.0436 23.0214 14.92 22.5814 15.0525 22.1798C15.1836 21.7782 15.5425 21.4948 15.967 21.4549L21.7399 20.9352L24.0232 15.6408C24.1915 15.2525 24.5742 15 25.0002 15C25.4262 15 25.8089 15.251 25.9772 15.6393L28.2605 20.9352L34.0334 21.4549C34.4579 21.4933 34.8168 21.7782 34.9479 22.1798C35.0789 22.5814 34.9583 23.0214 34.6366 23.2989L30.2727 27.0918L31.5595 32.7096C31.6533 33.123 31.4925 33.5497 31.1469 33.7977C30.8014 34.0458 30.3412 34.065 29.9793 33.8479L25.0002 30.8995L20.0212 33.8509C19.8528 33.9498 19.6652 34 19.476 34L19.4775 33.9985ZM25.0002 29.6283C25.1894 29.6283 25.377 29.6785 25.5453 29.7775L30.2444 32.5634L29.0305 27.2602C28.9441 26.8822 29.0737 26.4895 29.3671 26.2341L33.4868 22.6523L28.0356 22.1621C27.6439 22.1267 27.3058 21.8816 27.1524 21.5228L25.0002 16.5251L22.8465 21.5228C22.6946 21.8786 22.358 22.1237 21.9663 22.1591L16.5151 22.6493L20.6348 26.2311C20.9297 26.4865 21.0593 26.8807 20.9714 27.2587L19.7575 32.5605L24.4566 29.776C24.6249 29.6771 24.8125 29.6269 25.0017 29.6269L25.0002 29.6283ZM21.6967 21.0385C21.6967 21.0385 21.6967 21.0385 21.6967 21.04V21.0385Z" fill="#1F9763"></path>
</svg>
