<?xml version="1.0" encoding="UTF-8"?>
<svg xmlns="http://www.w3.org/2000/svg" width="50" height="50" viewBox="0 0 50 50" fill="none">
  <path d="M8.83443 43.2686L24.6511 49.9349C24.7542 49.9777 24.8636 49.9996 24.974 49.9996C25.0844 49.9996 25.1938 49.9777 25.2969 49.9349L41.1136 43.2686C41.4229 43.1383 41.6229 42.8349 41.6229 42.5001V36.1414L49.4719 32.4198C49.724 32.2999 49.9 32.0611 49.9396 31.7848C49.9792 31.5085 49.8771 31.2301 49.6688 31.0434L42.1761 24.3771L42.1708 24.3823C42.0906 24.3114 42.0021 24.2499 41.8979 24.2134L36.7948 22.4261C39.2761 20.6336 42.125 19.1821 45.0313 18.2979L44.5479 16.7025C41.1104 17.7483 37.7469 19.5471 34.9125 21.7661L29.2282 19.7744C29.5407 19.301 29.8573 18.8297 30.1969 18.374C31.1719 17.0653 32.1198 16.0549 33.0813 15.3104C33.2854 16.6253 34.2209 17.8161 35.5125 18.2343C37.1948 18.7807 39.1542 17.91 39.8802 16.2958C40.1521 15.691 40.2323 15.0612 40.1125 14.4751C39.9 13.4366 39.0333 12.5606 37.9011 12.2416C37.4719 12.1206 37.0104 12.0737 36.5198 12.106C38.3094 10.6138 40.5281 9.64928 42.8427 9.36669L42.6406 7.71289C39.7427 8.06638 36.975 9.36252 34.8469 11.3636C34.4136 11.7713 33.8677 12.3385 33.4886 13.056C31.8875 13.9214 30.3875 15.3281 28.8615 17.3782C28.4188 17.9725 27.999 18.5815 27.6 19.204L25.249 18.3792C25.0709 18.3166 24.8771 18.3166 24.699 18.3792L18.3146 20.6159C17.5282 19.5763 16.6698 18.6628 15.7417 17.8881C13.4782 15.9996 10.7782 14.9339 8.13859 14.8849C5.54901 14.8443 3.24589 15.8474 1.98443 17.5888C1.19902 18.6733 0.87506 20.1331 1.12089 21.4939C1.33443 22.6795 1.95631 23.668 2.87089 24.276L3.79172 22.8881C3.25839 22.5346 2.89172 21.9329 2.75943 21.1988C2.59485 20.2895 2.81464 19.2812 3.33235 18.569C4.27506 17.2676 6.06568 16.5095 8.10734 16.5533C10.3698 16.595 12.7032 17.5252 14.6761 19.1706C15.3782 19.7577 16.0365 20.4386 16.6542 21.2009L8.05005 24.2165C7.94484 24.253 7.8563 24.3145 7.77714 24.3854L7.77193 24.3802L0.279227 31.0476C0.0708942 31.2332 -0.0311891 31.5116 0.00839422 31.789C0.0469358 32.0653 0.222977 32.3041 0.476102 32.424L8.32401 36.1435V42.5022C8.32401 42.8369 8.52505 43.1404 8.83338 43.2707L8.83443 43.2686ZM34.7386 14.4397C34.75 14.3865 34.7625 14.3333 34.7792 14.2801C35.0396 14.1623 35.3031 14.0632 35.5709 13.9798C36.3063 13.7504 36.9396 13.7045 37.4521 13.8505C37.9729 13.9976 38.3969 14.3928 38.4823 14.813C38.5302 15.0507 38.4886 15.3354 38.3625 15.6159C37.9875 16.4491 36.8948 16.9339 36.0261 16.6534C35.1573 16.3698 34.5552 15.3364 34.7386 14.4407V14.4397ZM9.98963 36.9318L16.2938 39.9214C16.4063 39.9746 16.5282 40.0017 16.65 40.0017C16.8521 40.0017 17.0511 39.9277 17.2073 39.7869L24.1427 33.5387V47.9131L9.99067 41.9485V36.9329L9.98963 36.9318ZM39.9583 41.9475L25.8063 47.912V33.5377L32.7417 39.7858C32.8979 39.9266 33.0969 40.0007 33.299 40.0007C33.4209 40.0007 33.5417 39.9735 33.6552 39.9204L39.9583 36.9308V41.9464V41.9475ZM33.4438 38.1769L26.5261 31.9444L41.4552 25.9652L47.6219 31.4532L33.4438 38.1769ZM17.6792 22.6065C18.1771 23.3667 18.6407 24.1894 19.0646 25.0778L20.5667 24.3594C20.174 23.5356 19.7448 22.7671 19.2907 22.0413L24.974 20.0497L26.7334 20.6649C25.9313 22.0778 25.2271 23.5471 24.6511 25.0705L26.2084 25.6618C26.7907 24.1227 27.5115 22.6451 28.3354 21.2259L33.4292 23.0101C32.5844 23.7723 31.7917 24.5648 31.0927 25.3948L32.3667 26.4678C33.2031 25.473 34.174 24.5283 35.2302 23.642L39.2521 25.0507L24.974 30.7681L10.6969 25.0518L17.6802 22.6055L17.6792 22.6065ZM8.49276 25.9652L23.4219 31.9444L16.5042 38.1769L2.3261 31.4532L8.49276 25.9652Z" fill="#1F9763"></path>
  <path d="M15.2896 2.99258C15.1958 2.55879 14.9979 2.22303 14.7031 1.99571C14.3 1.68601 13.8323 1.66933 13.5208 1.68288C11.8406 1.75692 10.2875 2.78611 9.5625 4.30436L11.0656 5.02281C11.5219 4.06765 12.5375 3.39404 13.5948 3.34711C13.6198 3.34711 13.6417 3.34503 13.6594 3.34503C13.6615 3.34503 13.6635 3.34503 13.6635 3.34711C13.7667 3.82052 13.574 4.35858 13.35 4.98215C13.1937 5.41593 13.0333 5.86327 12.95 6.35337C12.9229 6.52021 12.8375 7.03115 13.1687 7.47328C13.4323 7.82469 13.85 8.0103 14.4 7.98319C15.0187 7.96755 15.5937 7.83824 16.151 7.71311C16.5844 7.6151 17.001 7.52229 17.4354 7.49622L16.7948 10.2825C16.7396 10.5212 16.6479 10.9196 16.8156 11.3471C17.125 12.1344 18.0281 12.3617 18.7604 12.1803C18.9052 12.1448 19.0489 12.0948 19.1917 12.0457C19.3489 11.9905 19.5042 11.9175 19.601 11.9383C19.7781 11.9467 20.0333 12.3638 20.0958 12.8872C20.1135 13.0343 20.126 13.1844 20.1375 13.3367C20.1937 14.0447 20.2594 14.8455 20.8052 15.5202L22.0979 14.4691C21.8771 14.1969 21.8385 13.7141 21.7969 13.2022C21.7823 13.0301 21.7687 12.857 21.7489 12.6891C21.6104 11.5306 20.9177 10.3335 19.6844 10.2731C19.275 10.2543 18.925 10.3742 18.6437 10.4722C18.5781 10.4952 18.5125 10.5192 18.4458 10.54L19.1385 7.53376C19.1823 7.34294 19.275 6.94773 19.0771 6.5421C18.951 6.28246 18.6146 5.84242 17.7812 5.81948C17.0667 5.79966 16.4198 5.94565 15.7896 6.08851C15.4135 6.17401 15.0531 6.2543 14.6719 6.29289C14.7375 6.0541 14.8271 5.80592 14.9198 5.54836C15.1896 4.79237 15.4979 3.93627 15.2917 2.99466L15.2896 2.99258Z" fill="#1F9763"></path>
  <path d="M0.211979 12.5578L1.84844 12.8655C2.09635 11.5412 3.26198 10.3597 4.74843 9.9249C6.09114 9.53282 7.71718 9.69132 9.32551 10.3743C10.9536 11.0657 12.3818 12.1741 13.4557 13.5808L14.7786 12.5693C13.5297 10.9322 11.8682 9.64231 9.97447 8.83939C8.01509 8.00832 5.99322 7.8248 4.28177 8.32532C2.17656 8.94054 0.578645 10.6016 0.210938 12.5578H0.211979Z" fill="#1F9763"></path>
  <path d="M22.4805 5.87322L24.0075 5.20898L26.018 9.83984L24.4909 10.5041L22.4805 5.87322Z" fill="#1F9763"></path>
  <path d="M26.9922 10.8096L28.4901 11.5364C29.1641 10.1433 30.0401 8.86173 31.0911 7.72722L29.8713 6.59375C28.7068 7.84818 27.7391 9.26736 26.9922 10.8096Z" fill="#1F9763"></path>
  <path d="M26.0721 6.20229L27.7335 6.10428C27.6544 4.76434 28.0241 3.41293 28.7741 2.30136L27.395 1.36914C26.4408 2.78311 25.971 4.49948 26.0721 6.20334V6.20229Z" fill="#1F9763"></path>
  <path d="M47.3008 16.0274L47.6029 17.6666C48.4164 17.5165 49.2227 17.4164 50.0008 17.3663L49.8966 15.7031C49.0529 15.7563 48.1789 15.8658 47.3008 16.0274Z" fill="#1F9763"></path>
  <path d="M20.8125 0H22.4771V1.66632H20.8125V0Z" fill="#1F9763"></path>
  <path d="M35.7969 1.66602H37.4615V3.33233H35.7969V1.66602Z" fill="#1F9763"></path>
  <path d="M46.6172 10H48.2818V11.6663H46.6172V10Z" fill="#1F9763"></path>
  <path d="M2.49609 1.66602H4.16068V3.33233H2.49609V1.66602Z" fill="#1F9763"></path>
  <path d="M16.6484 15H18.313V16.6663H16.6484V15Z" fill="#1F9763"></path>
  <path d="M7.49219 20H9.15677V21.6663H7.49219V20Z" fill="#1F9763"></path>
</svg>
