<?xml version="1.0" encoding="UTF-8"?>
<svg xmlns="http://www.w3.org/2000/svg" width="45" height="45" viewBox="0 0 45 45" fill="none">
  <path d="M31.9555 27.6408C31.5519 27.2801 30.9332 27.3156 30.5737 27.7167C28.5328 29.9972 25.5907 31.3044 22.4981 31.3044C19.4056 31.3044 16.4635 29.9972 14.4226 27.7167C14.0619 27.3143 13.4443 27.2789 13.0408 27.6408C12.6373 28.0003 12.6043 28.6191 12.965 29.0226C15.3764 31.7165 18.8517 33.2609 22.4981 33.2609C26.1446 33.2609 29.6211 31.7153 32.0313 29.0226C32.3908 28.6191 32.3566 28.0016 31.9555 27.6408Z" fill="#1F9763"></path>
  <path d="M22.5 0C10.0932 0 0 10.0932 0 22.5C0 34.9068 10.0932 45 22.5 45C34.9068 45 45 34.9068 45 22.5C45 10.0932 34.9068 0 22.5 0ZM22.5 43.0435C11.1717 43.0435 1.95652 33.8283 1.95652 22.5C1.95652 11.1717 11.1717 1.95652 22.5 1.95652C33.8283 1.95652 43.0435 11.1717 43.0435 22.5C43.0435 33.8283 33.8283 43.0435 22.5 43.0435Z" fill="#1F9763"></path>
  <path d="M30.3249 15.6523C27.6273 15.6523 25.4336 17.8461 25.4336 20.5436C25.4336 21.0841 25.8714 21.5219 26.4119 21.5219C26.9523 21.5219 27.3901 21.0841 27.3901 20.5436C27.3901 18.9258 28.7071 17.6089 30.3249 17.6089C31.9427 17.6089 33.2597 18.9258 33.2597 20.5436C33.2597 21.0841 33.6975 21.5219 34.2379 21.5219C34.7784 21.5219 35.2162 21.0841 35.2162 20.5436C35.2162 17.8461 33.0225 15.6523 30.3249 15.6523Z" fill="#1F9763"></path>
  <path d="M17.6073 20.5436C17.6073 21.0841 18.0451 21.5219 18.5856 21.5219C19.1261 21.5219 19.5639 21.0841 19.5639 20.5436C19.5639 17.8461 17.3701 15.6523 14.6726 15.6523C11.975 15.6523 9.78125 17.8461 9.78125 20.5436C9.78125 21.0841 10.219 21.5219 10.7595 21.5219C11.3 21.5219 11.7378 21.0841 11.7378 20.5436C11.7378 18.9258 13.0548 17.6089 14.6726 17.6089C16.2904 17.6089 17.6073 18.9258 17.6073 20.5436Z" fill="#1F9763"></path>
</svg>
