<?xml version="1.0" encoding="UTF-8"?>
<svg xmlns="http://www.w3.org/2000/svg" width="37" height="53" viewBox="0 0 37 53" fill="none">
  <path d="M0.73303 52.1309C0.611145 52.1309 0.487542 52.0987 0.375957 52.0345C0.142486 51.9006 0 51.6452 0 51.3685V8.16882C0 7.74744 0.327889 7.4082 0.731313 7.4082H23.3334C23.7385 7.4082 24.0647 7.74923 24.0647 8.16882C24.0647 8.58841 23.7368 8.92943 23.3334 8.92943H1.46263V50.0026L14.8786 41.3573C15.1155 41.2038 15.4125 41.2038 15.6494 41.3573L29.0654 50.0026V14.8929C29.0654 14.4716 29.3933 14.1323 29.7967 14.1323C30.2002 14.1323 30.528 14.4733 30.528 14.8929V51.3703C30.528 51.647 30.3838 51.9023 30.1521 52.0363C29.9186 52.1702 29.6354 52.163 29.4105 52.0184L15.2632 42.9017L1.11414 52.0184C1.00084 52.0934 0.866933 52.1327 0.73303 52.1327V52.1309Z" fill="#1F9763"></path>
  <path d="M7.94367 28.1455C7.75312 28.1455 7.56257 28.0687 7.41836 27.9134C6.45015 26.8796 5.91797 25.5155 5.91797 24.0728C5.91797 21.0375 8.29388 18.5664 11.2123 18.5664C13.2002 18.5664 15.0027 19.7073 15.916 21.5464C16.1031 21.9195 15.9607 22.3802 15.6019 22.5712C15.2431 22.7641 14.8002 22.6177 14.6165 22.2445C13.9556 20.9143 12.6491 20.0894 11.2123 20.0894C9.10073 20.0894 7.3806 21.8749 7.3806 24.0746C7.3806 25.1191 7.76685 26.1047 8.46555 26.8528C8.74709 27.1546 8.74194 27.6366 8.45182 27.9295C8.31448 28.0723 8.12908 28.1455 7.94367 28.1455Z" fill="#1F9763"></path>
  <path d="M22.5923 28.1457C22.4069 28.1457 22.225 28.0743 22.0808 27.9296C21.7906 27.6368 21.7855 27.1547 22.067 26.853C22.7657 26.1049 23.152 25.1193 23.152 24.0748C23.152 21.8786 21.4353 20.0896 19.3203 20.0896C17.8817 20.0896 16.577 20.9163 15.9161 22.2447C15.729 22.6178 15.2878 22.7642 14.9307 22.5714C14.5736 22.3786 14.4311 21.9179 14.6166 21.5465C15.5316 19.7093 17.3324 18.5684 19.3203 18.5684C22.2387 18.5684 24.6146 21.0395 24.6146 24.0748C24.6146 25.5174 24.0824 26.8833 23.1142 27.9153C22.9734 28.0671 22.7829 28.1439 22.5923 28.1439V28.1457Z" fill="#1F9763"></path>
  <path d="M15.2666 34.8473C15.095 34.8473 14.9198 34.783 14.7825 34.6563L7.45908 27.9536C7.15694 27.675 7.12604 27.1947 7.39212 26.8805C7.65821 26.5663 8.12172 26.5341 8.42386 26.8109L15.2632 33.0708L22.1025 26.8109C22.4047 26.5323 22.8682 26.5645 23.1342 26.8805C23.4003 27.1965 23.3729 27.6768 23.0673 27.9536L15.7439 34.6563C15.61 34.783 15.4349 34.8473 15.2632 34.8473H15.2666Z" fill="#1F9763"></path>
  <path d="M29.8036 15.6568C25.8346 15.6568 22.6055 12.2983 22.6055 8.17028C22.6055 4.04225 25.8346 0.685547 29.8036 0.685547C33.7726 0.685547 37.0017 4.04403 37.0017 8.17206C37.0017 12.3001 33.7726 15.6586 29.8036 15.6586V15.6568ZM29.8036 2.20856C26.6414 2.20856 24.0698 4.88321 24.0698 8.17206C24.0698 11.4609 26.6414 14.1356 29.8036 14.1356C32.9657 14.1356 35.5374 11.4609 35.5374 8.17206C35.5374 4.88321 32.9675 2.20856 29.8036 2.20856Z" fill="#1F9763"></path>
  <path d="M29.8016 12.0161C29.3965 12.0161 29.0703 11.675 29.0703 11.2554V5.08483C29.0703 4.66346 29.3982 4.32422 29.8016 4.32422C30.2051 4.32422 30.5329 4.66525 30.5329 5.08483V11.2537C30.5347 11.6733 30.2068 12.0143 29.8016 12.0143V12.0161Z" fill="#1F9763"></path>
  <path d="M32.768 8.92943H26.8368C26.4316 8.92943 26.1055 8.58841 26.1055 8.16882C26.1055 7.74923 26.4334 7.4082 26.8368 7.4082H32.768C33.1731 7.4082 33.4993 7.74923 33.4993 8.16882C33.4993 8.58841 33.1731 8.92943 32.768 8.92943Z" fill="#1F9763"></path>
</svg>
