<?xml version="1.0" encoding="UTF-8"?>
<svg xmlns="http://www.w3.org/2000/svg" width="70" height="70" viewBox="0 0 70 70" fill="none">
  <path d="M34.5 16.541C28.8047 16.541 24.1875 21.2921 24.1875 27.1527C24.1875 33.0132 28.8047 37.7643 34.5 37.7643C40.1953 37.7643 44.8125 33.0132 44.8125 27.1527C44.8055 21.2945 40.193 16.5483 34.5 16.541ZM34.5 35.8349C29.8406 35.8349 26.0625 31.9472 26.0625 27.1527C26.0625 22.3581 29.8406 18.4704 34.5 18.4704C39.1594 18.4704 42.9375 22.3581 42.9375 27.1527C42.9328 31.946 39.1582 35.8301 34.5 35.8349Z" fill="#1F9763"></path>
  <path d="M34.5 4C22.0793 4.01447 12.0141 14.3717 12 27.1527C12 43.7731 32.9602 64.5949 33.852 65.4727C34.2141 65.8297 34.7859 65.8297 35.148 65.4727C36.0398 64.5949 57 43.7731 57 27.1527C56.9859 14.3717 46.9207 4.01447 34.5 4ZM34.5 63.4191C30.9316 59.7352 13.875 41.3759 13.875 27.1527C13.875 15.4316 23.1094 5.92939 34.5 5.92939C45.8906 5.92939 55.125 15.4316 55.125 27.1527C55.125 41.3686 38.0684 59.7352 34.5 63.4191Z" fill="#1F9763"></path>
</svg>
