<?xml version="1.0" encoding="UTF-8"?>
<svg xmlns="http://www.w3.org/2000/svg" width="28" height="28" viewBox="0 0 28 28" fill="none">
  <g clip-path="url(#clip0_2515_16934)">
    <circle cx="14.791" cy="15.0059" r="9.28125" fill="white"></circle>
    <path d="M14.791 2.34961C7.80139 2.34961 2.13477 8.01623 2.13477 15.0059C2.13477 21.9955 7.80139 27.6621 14.791 27.6621C21.7806 27.6621 27.4473 21.9955 27.4473 15.0059C27.4473 8.01623 21.7806 2.34961 14.791 2.34961ZM20.6551 10.3349L15.952 15.0379L20.1134 19.6769C20.2671 19.836 20.3521 20.0491 20.3502 20.2704C20.3483 20.4916 20.2596 20.7032 20.1031 20.8596C19.9467 21.0161 19.7351 21.1048 19.5138 21.1067C19.2926 21.1087 19.0795 21.0236 18.9203 20.8699L14.759 16.231L10.12 20.8699C9.96088 21.0236 9.74775 21.1087 9.52652 21.1067C9.30529 21.1048 9.09367 21.0161 8.93723 20.8596C8.78079 20.7032 8.69206 20.4916 8.69013 20.2704C8.68821 20.0491 8.77326 19.836 8.92695 19.6769L13.63 14.9738L9.46864 10.3349C9.31495 10.1757 9.2299 9.96259 9.23182 9.74136C9.23374 9.52014 9.32248 9.30851 9.47892 9.15207C9.63536 8.99564 9.84698 8.9069 10.0682 8.90498C10.2894 8.90306 10.5026 8.9881 10.6617 9.1418L14.8231 13.7807L19.462 9.1418C19.6211 8.9881 19.8343 8.90306 20.0555 8.90498C20.2767 8.9069 20.4884 8.99564 20.6448 9.15207C20.8012 9.30851 20.89 9.52014 20.8919 9.74136C20.8938 9.96259 20.8088 10.1757 20.6551 10.3349Z" fill="#3A4454"></path>
  </g>
  <defs>
    <clipPath id="clip0_2515_16934">
      <rect width="27" height="27" fill="white" transform="translate(0.447266 0.662109)"></rect>
    </clipPath>
  </defs>
</svg>
