<svg width="16" height="17" viewBox="0 0 16 17" fill="none" xmlns="http://www.w3.org/2000/svg">
<path d="M1 12.3263V8.0486H3.7222L4.49997 8.82637V12.3263L3.7222 13.1041H1.77777L1 12.3263Z" fill="#E1EEEB"/>
<path d="M15 12.3263V8.0486H12.2778L11.5 8.82637V12.3263L12.2778 13.1041H14.2222L15 12.3263Z" fill="#E1EEEB"/>
<path d="M14.9999 7.99593H12.6841C12.3771 7.99593 12.0825 8.11792 11.8654 8.33507C11.6483 8.55221 11.5263 8.84672 11.5263 9.15381V12.0485C11.5263 12.3556 11.6483 12.6501 11.8654 12.8673C12.0825 13.0844 12.3771 13.2064 12.6841 13.2064H13.842C14.1491 13.2064 14.4436 13.0844 14.6608 12.8673C14.8779 12.6501 14.9999 12.3556 14.9999 12.0485V7.99593ZM14.9999 7.99593C14.9999 7.07917 14.8185 6.17147 14.466 5.32516C14.1136 4.47885 13.5971 3.71066 12.9464 3.06488C12.2957 2.41909 11.5236 1.90848 10.6747 1.56247C9.82573 1.21646 8.91669 1.0419 7.99995 1.04885C7.08321 1.0419 6.17417 1.21646 5.32521 1.56247C4.47625 1.90848 3.70417 2.41909 3.05347 3.06488C2.40277 3.71066 1.88632 4.47885 1.53388 5.32516C1.18145 6.17147 1 7.07917 1 7.99593M1 7.99593V12.0485C1 12.3556 1.12199 12.6501 1.33913 12.8673C1.55628 13.0844 1.85079 13.2064 2.15788 13.2064H3.31576C3.62285 13.2064 3.91736 13.0844 4.1345 12.8673C4.35165 12.6501 4.47364 12.3556 4.47364 12.0485V9.15381C4.47364 8.84672 4.35165 8.55221 4.1345 8.33507C3.91736 8.11792 3.62285 7.99593 3.31576 7.99593H1Z" stroke="#007953" stroke-width="0.5" stroke-linecap="round" stroke-linejoin="round"/>
<path d="M15.0001 12.0485V13.7853C15.0001 14.3995 14.7561 14.9885 14.3218 15.4228C13.8875 15.8571 13.2985 16.1011 12.6843 16.1011H8.52637" stroke="#007953" stroke-width="0.5" stroke-linecap="round" stroke-linejoin="round"/>
</svg>
