<svg width="22" height="20" viewBox="0 0 22 20" fill="none" xmlns="http://www.w3.org/2000/svg">
<path d="M9.14069 19.491C14.0445 19.491 18.0199 15.5157 18.0199 10.6118C18.0199 5.70795 14.0445 1.73259 9.14069 1.73259C4.23683 1.73259 0.261475 5.70795 0.261475 10.6118C0.261475 15.5157 4.23683 19.491 9.14069 19.491Z" fill="#EEECED"/>
<path d="M20.5053 8.64957C20.3581 8.64957 20.2273 8.51875 20.2273 8.37158V7.12882C20.2273 6.98165 20.3581 6.85083 20.5053 6.85083C20.6524 6.85083 20.7833 6.98165 20.7833 7.12882V8.37158C20.7833 8.5351 20.6524 8.64957 20.5053 8.64957Z" fill="#BDC0C4"/>
<path d="M19.606 7.7502C19.606 7.60303 19.7368 7.47221 19.8839 7.47221H21.1267C21.2739 7.47221 21.4047 7.60303 21.4047 7.7502C21.4047 7.89737 21.2739 8.02819 21.1267 8.02819H19.8839C19.7204 8.02819 19.606 7.91372 19.606 7.7502Z" fill="#BDC0C4"/>
<path d="M0.899324 2.32129C0.752154 2.32129 0.621338 2.19047 0.621338 2.0433V0.800538C0.621338 0.653369 0.752154 0.522552 0.899324 0.522552C1.04649 0.522552 1.17731 0.653369 1.17731 0.800538V2.0433C1.17731 2.19047 1.06285 2.32129 0.899324 2.32129Z" fill="#BDC0C4"/>
<path d="M0 1.42192C0 1.27475 0.130819 1.14394 0.277988 1.14394H1.52075C1.66792 1.14394 1.79874 1.27475 1.79874 1.42192C1.79874 1.56909 1.66792 1.69991 1.52075 1.69991H0.277988C0.130819 1.69991 0 1.56909 0 1.42192Z" fill="#BDC0C4"/>
<path d="M17.4191 8.96248L7.75182 18.6298L5.94383 16.8218C6.53493 16.2307 6.53493 15.2754 5.94383 14.6843C5.35431 14.0948 4.39751 14.0948 3.80641 14.6859L2 12.8779L11.6673 3.21066L13.4753 5.01865C12.8842 5.60975 12.8842 6.56497 13.4737 7.15607C14.0648 7.74717 15.02 7.74717 15.6111 7.15607L17.4191 8.96248Z" fill="white"/>
<path d="M17.4191 8.96248L7.75182 18.6298L5.94383 16.8218C6.53493 16.2307 6.53493 15.2754 5.94383 14.6843C5.35431 14.0948 4.39751 14.0948 3.80641 14.6859L2 12.8779L11.6673 3.21066L13.4753 5.01865C12.8842 5.60975 12.8842 6.56497 13.4737 7.15607C14.0648 7.74717 15.02 7.74717 15.6111 7.15607L17.4191 8.96248Z" stroke="#007953" stroke-width="0.5" stroke-linecap="round" stroke-linejoin="round"/>
<path d="M8.81274 6.06371L9.48108 6.73362" stroke="#007953" stroke-width="0.5" stroke-linecap="round" stroke-linejoin="round"/>
<path d="M10.9534 8.20428L13.1601 10.4126" stroke="#007953" stroke-width="0.5" stroke-linecap="round" stroke-linejoin="round" stroke-dasharray="13.2 13.2"/>
<path d="M13.8962 11.1488L14.5662 11.8171" stroke="#007953" stroke-width="0.5" stroke-linecap="round" stroke-linejoin="round"/>
</svg>
