<svg width="24" height="24" viewBox="0 0 24 24" fill="none" xmlns="http://www.w3.org/2000/svg">
<circle cx="12.75" cy="12.75" r="8.25" fill="white"/>
<path d="M12.75 1.5C6.537 1.5 1.5 6.537 1.5 12.75C1.5 18.963 6.537 24 12.75 24C18.963 24 24 18.963 24 12.75C24 6.537 18.963 1.5 12.75 1.5ZM17.9625 8.598L13.782 12.7785L17.481 16.902C17.6176 17.0435 17.6932 17.2329 17.6915 17.4296C17.6898 17.6262 17.6109 17.8143 17.4719 17.9534C17.3328 18.0924 17.1447 18.1713 16.9481 18.173C16.7514 18.1747 16.562 18.0991 16.4205 17.9625L12.7215 13.839L8.598 17.9625C8.45655 18.0991 8.2671 18.1747 8.07045 18.173C7.8738 18.1713 7.68569 18.0924 7.54664 17.9534C7.40758 17.8143 7.3287 17.6262 7.32699 17.4296C7.32529 17.2329 7.40088 17.0435 7.5375 16.902L11.718 12.7215L8.019 8.598C7.88238 8.45655 7.80679 8.2671 7.80849 8.07045C7.8102 7.8738 7.88908 7.68569 8.02814 7.54664C8.16719 7.40758 8.3553 7.3287 8.55195 7.32699C8.7486 7.32529 8.93805 7.40088 9.0795 7.5375L12.7785 11.661L16.902 7.5375C17.0435 7.40088 17.2329 7.32529 17.4296 7.32699C17.6262 7.3287 17.8143 7.40758 17.9534 7.54664C18.0924 7.68569 18.1713 7.8738 18.173 8.07045C18.1747 8.2671 18.0991 8.45655 17.9625 8.598Z" fill="#3A4454"/>
</svg>
