<?xml version="1.0" encoding="UTF-8"?>
<svg xmlns="http://www.w3.org/2000/svg" width="50" height="51" viewBox="0 0 50 51" fill="none">
  <path d="M25 49.1071C11.7676 49.1071 1 38.3383 1 25.1043C1 11.8704 11.7676 1 25 1C38.2324 1 49 11.8124 49 25.1043C49 38.3963 38.2324 49.1071 25 49.1071ZM25 5.42259C14.2034 5.42259 5.42207 14.2484 5.42207 25.1043C5.42207 35.9602 14.2034 44.6846 25 44.6846C35.7966 44.6846 44.5779 35.9022 44.5779 25.1043C44.5779 14.3064 35.7966 5.42259 25 5.42259Z" fill="#219963" stroke="white" stroke-width="2"></path>
  <path fill-rule="evenodd" clip-rule="evenodd" d="M25.0055 18.787C24.955 18.787 24.9049 18.7853 24.8552 18.782H21.5274C20.4255 18.782 19.5266 19.6762 19.5266 20.7782C19.5266 21.9575 20.4062 22.8807 21.5274 22.8807H28.3659C28.4529 22.8807 28.5387 22.8858 28.6231 22.8956C32.0481 23.0297 34.7917 25.8612 34.7917 29.3143C34.7917 32.8523 31.9113 35.7379 28.3688 35.7379V35.7331H27.2141V38.0478C27.2141 39.2707 26.2234 40.2615 25.0055 40.2615C23.7876 40.2615 22.7969 39.2707 22.7969 38.0478V35.7331H21.5303C18.9351 35.7331 16.5428 34.1139 15.5811 31.7116C15.1268 30.5806 15.6777 29.2949 16.8135 28.8406C17.9444 28.3814 19.2299 28.9372 19.689 30.0731C19.979 30.803 20.7378 31.3105 21.5303 31.3105H24.8519C24.9026 31.307 24.9539 31.3052 25.0055 31.3052C25.0571 31.3052 25.1084 31.307 25.1591 31.3105H28.3688C29.4707 31.3105 30.3696 30.4163 30.3696 29.3143C30.3696 28.2122 29.4707 27.3181 28.3688 27.3181C28.3182 27.3181 28.268 27.3163 28.2182 27.313H21.5274C17.9849 27.313 15.1094 24.3839 15.1094 20.783C15.1094 17.1821 17.9898 14.3594 21.5274 14.3594H22.7969V12.1507C22.7969 10.9279 23.7876 9.93701 25.0055 9.93701C26.2234 9.93701 27.2141 10.9279 27.2141 12.1507V14.3594H28.3659C30.9563 14.3594 33.3824 15.9592 34.3973 18.3325C34.8758 19.4586 34.3538 20.754 33.2326 21.2325C32.1066 21.7255 30.8114 21.1938 30.3329 20.0725C30.0574 19.4296 29.2938 18.782 28.3659 18.782H25.1558C25.1061 18.7853 25.056 18.787 25.0055 18.787Z" fill="#219963"></path>
  <path d="M24.8552 18.782L24.9226 17.7842L24.8889 17.782H24.8552V18.782ZM28.6231 22.8956L28.5073 23.8889L28.5455 23.8933L28.5839 23.8948L28.6231 22.8956ZM28.3688 35.7379H27.3688V36.7379H28.3688V35.7379ZM28.3688 35.7331H29.3688V34.7331H28.3688V35.7331ZM27.2141 35.7331V34.7331H26.2141V35.7331H27.2141ZM22.7969 35.7331H23.7969V34.7331H22.7969V35.7331ZM15.5811 31.7116L16.5094 31.34L16.509 31.3389L15.5811 31.7116ZM16.8135 28.8406L17.1849 29.7691L17.1897 29.7671L16.8135 28.8406ZM19.689 30.0731L20.6184 29.7039L20.6161 29.6984L19.689 30.0731ZM24.8519 31.3105V32.3105H24.8863L24.9207 32.3081L24.8519 31.3105ZM25.1591 31.3105L25.0902 32.3081L25.1246 32.3105H25.1591V31.3105ZM28.2182 27.313L28.2857 26.3153L28.252 26.313H28.2182V27.313ZM22.7969 14.3594V15.3594H23.7969V14.3594H22.7969ZM27.2141 14.3594H26.2141V15.3594H27.2141V14.3594ZM34.3973 18.3325L35.3177 17.9414L35.3168 17.9393L34.3973 18.3325ZM33.2326 21.2325L32.8401 20.3127L32.8316 20.3165L33.2326 21.2325ZM30.3329 20.0725L31.2527 19.68L31.2521 19.6786L30.3329 20.0725ZM25.1558 18.782V17.782H25.1221L25.0884 17.7842L25.1558 18.782ZM24.7879 19.7797C24.8599 19.7846 24.9325 19.787 25.0055 19.787V17.787C24.9775 17.787 24.9498 17.7861 24.9226 17.7842L24.7879 19.7797ZM21.5274 19.782H24.8552V17.782H21.5274V19.782ZM20.5266 20.7782C20.5266 20.2315 20.9748 19.782 21.5274 19.782V17.782C19.8763 17.782 18.5266 19.1208 18.5266 20.7782H20.5266ZM21.5274 21.8807C21.0043 21.8807 20.5266 21.4522 20.5266 20.7782H18.5266C18.5266 22.4629 19.8081 23.8807 21.5274 23.8807V21.8807ZM28.3659 21.8807H21.5274V23.8807H28.3659V21.8807ZM28.7388 21.9023C28.6161 21.888 28.4916 21.8807 28.3659 21.8807V23.8807C28.4141 23.8807 28.4613 23.8835 28.5073 23.8889L28.7388 21.9023ZM35.7917 29.3143C35.7917 25.3224 32.6221 22.0514 28.6622 21.8964L28.5839 23.8948C31.4741 24.008 33.7917 26.4 33.7917 29.3143H35.7917ZM28.3688 36.7379C32.4642 36.7379 35.7917 33.404 35.7917 29.3143H33.7917C33.7917 32.3006 31.3584 34.7379 28.3688 34.7379V36.7379ZM27.3688 35.7331V35.7379H29.3688V35.7331H27.3688ZM27.2141 36.7331H28.3688V34.7331H27.2141V36.7331ZM26.2141 35.7331V38.0478H28.2141V35.7331H26.2141ZM26.2141 38.0478C26.2141 38.7199 25.6696 39.2615 25.0055 39.2615V41.2615C26.7772 41.2615 28.2141 39.8214 28.2141 38.0478H26.2141ZM25.0055 39.2615C24.3414 39.2615 23.7969 38.7199 23.7969 38.0478H21.7969C21.7969 39.8214 23.2338 41.2615 25.0055 41.2615V39.2615ZM23.7969 38.0478V35.7331H21.7969V38.0478H23.7969ZM21.5303 36.7331H22.7969V34.7331H21.5303V36.7331ZM14.6527 32.0833C15.7666 34.8657 18.527 36.7331 21.5303 36.7331V34.7331C19.3432 34.7331 17.319 33.3621 16.5094 31.34L14.6527 32.0833ZM16.442 27.9121C14.795 28.571 13.992 30.4384 14.6531 32.0844L16.509 31.3389C16.2616 30.7228 16.5605 30.0188 17.1849 29.769L16.442 27.9121ZM20.6161 29.6984C19.9537 28.0594 18.0899 27.243 16.4373 27.914L17.1897 29.7671C17.7988 29.5198 18.5061 29.8151 18.7619 30.4479L20.6161 29.6984ZM21.5303 30.3105C21.139 30.3105 20.7539 30.0451 20.6184 29.7039L18.7597 30.4423C19.2041 31.5608 20.3365 32.3105 21.5303 32.3105V30.3105ZM24.8519 30.3105H21.5303V32.3105H24.8519V30.3105ZM24.9207 32.3081C24.9486 32.3062 24.9769 32.3052 25.0055 32.3052V30.3052C24.9309 30.3052 24.8567 30.3078 24.783 30.3128L24.9207 32.3081ZM25.0055 32.3052C25.0341 32.3052 25.0624 32.3062 25.0902 32.3081L25.228 30.3128C25.1543 30.3078 25.0801 30.3052 25.0055 30.3052V32.3052ZM28.3688 30.3105H25.1591V32.3105H28.3688V30.3105ZM29.3696 29.3143C29.3696 29.861 28.9215 30.3105 28.3688 30.3105V32.3105C30.02 32.3105 31.3696 30.9716 31.3696 29.3143H29.3696ZM28.3688 28.3181C28.9215 28.3181 29.3696 28.7676 29.3696 29.3143H31.3696C31.3696 27.6569 30.02 26.3181 28.3688 26.3181V28.3181ZM28.1507 28.3107C28.2229 28.3156 28.2957 28.3181 28.3688 28.3181V26.3181C28.3408 26.3181 28.3131 26.3171 28.2857 26.3153L28.1507 28.3107ZM21.5274 28.313H28.2182V26.313H21.5274V28.313ZM14.1094 20.783C14.1094 24.9195 17.4161 28.313 21.5274 28.313V26.313C18.5538 26.313 16.1094 23.8483 16.1094 20.783H14.1094ZM21.5274 13.3594C17.4428 13.3594 14.1094 16.6245 14.1094 20.783H16.1094C16.1094 17.7397 18.5367 15.3594 21.5274 15.3594V13.3594ZM22.7969 13.3594H21.5274V15.3594H22.7969V13.3594ZM21.7969 12.1507V14.3594H23.7969V12.1507H21.7969ZM25.0055 8.93701C23.2338 8.93701 21.7969 10.3771 21.7969 12.1507H23.7969C23.7969 11.4786 24.3414 10.937 25.0055 10.937V8.93701ZM28.2141 12.1507C28.2141 10.3771 26.7772 8.93701 25.0055 8.93701V10.937C25.6696 10.937 26.2141 11.4786 26.2141 12.1507H28.2141ZM28.2141 14.3594V12.1507H26.2141V14.3594H28.2141ZM28.3659 13.3594H27.2141V15.3594H28.3659V13.3594ZM35.3168 17.9393C34.144 15.1969 31.3555 13.3594 28.3659 13.3594V15.3594C30.5572 15.3594 32.6208 16.7216 33.4779 18.7257L35.3168 17.9393ZM33.6251 22.1523C35.2548 21.4568 36.0114 19.5743 35.3177 17.9414L33.477 18.7235C33.7401 19.343 33.4529 20.0512 32.8401 20.3128L33.6251 22.1523ZM29.4131 20.4649C30.1053 22.0873 31.9881 22.869 33.6337 22.1486L32.8316 20.3165C32.225 20.582 31.5174 20.3004 31.2527 19.68L29.4131 20.4649ZM28.3659 19.782C28.5932 19.782 28.8175 19.8612 29.0152 20.0016C29.2194 20.1465 29.3545 20.3281 29.4137 20.4664L31.2521 19.6786C30.8412 18.7197 29.7472 17.782 28.3659 17.782V19.782ZM25.1558 19.782H28.3659V17.782H25.1558V19.782ZM25.0055 19.787C25.0785 19.787 25.1511 19.7846 25.2231 19.7797L25.0884 17.7842C25.0611 17.7861 25.0335 17.787 25.0055 17.787V19.787Z" fill="white"></path>
</svg>
